<svg width="47" height="44" viewBox="0 0 47 44" fill="none" xmlns="http://www.w3.org/2000/svg">
<path d="M36.9323 11.3552C33.5279 9.01583 29.8491 8.32286 25.8029 8.26705C25.8029 18.0524 25.8029 27.74 25.8029 37.5439C27.6446 37.8044 29.8212 37.1672 30.8723 39.4368C30.942 39.5903 31.5513 39.4973 31.9141 39.5066C35.9463 39.6507 36.03 39.6973 38.7647 43.2365C28.6817 43.2365 18.7197 43.2365 8.49255 43.2365C10.311 41.0739 11.8737 38.9485 15.0455 39.4973C16.0966 39.6786 16.6733 39.0554 17.4872 38.3997C18.4639 37.6137 20.1056 37.6509 21.6265 37.2928C21.6265 27.8144 21.6265 18.1872 21.6265 7.89963C17.5988 8.84374 13.8317 9.72741 9.79943 10.6715C11.5993 14.6154 13.1201 17.9547 14.6502 21.2893C16.185 24.6286 15.9339 26.8424 13.7294 29.2004C11.5435 31.5397 8.15769 32.2839 5.18582 31.1072C1.907 29.8096 -0.981158 25.4472 1.27449 21.5684C2.92088 18.736 3.93475 15.5316 5.10211 12.7923C3.41386 11.4575 1.88374 10.2437 0.404785 9.0763C7.64145 7.3834 14.5572 5.76026 21.6776 4.09526C21.6776 3.16045 21.6776 2.0303 21.6776 0.709473C23.0124 0.709473 24.1844 0.709473 25.5889 0.709473C25.5889 1.86287 25.5889 3.05348 25.5889 4.10922C32.6721 5.7463 39.5088 7.33224 46.9129 9.04374C45.2479 10.3274 43.6946 11.5273 41.997 12.8388C43.2109 15.4991 44.5457 18.4523 45.8991 21.3963C47.4152 24.6798 46.978 27.3633 44.5457 29.6003C42.0621 31.8792 38.388 32.3164 35.4998 30.6747C32.035 28.7074 30.9188 25.3216 32.5001 21.6939C33.9558 18.3314 35.3929 14.9503 36.9323 11.3552ZM14.2596 23.824C12.362 19.6615 10.5575 15.713 8.45535 11.104C4.70679 14.9363 4.17195 19.7174 1.78608 23.824C6.11599 23.824 10.032 23.824 14.2596 23.824ZM33.0954 23.824C37.309 23.824 41.2343 23.824 45.4572 23.824C43.7225 20.0336 42.1412 16.4199 40.3878 12.8946C40.1041 12.3272 39.0763 12.1272 38.281 11.704C36.4765 15.9176 34.8162 19.8011 33.0954 23.824Z" fill="black"/>
</svg>
