<svg width="47" height="41" viewBox="0 0 47 41" fill="none" xmlns="http://www.w3.org/2000/svg">
<path d="M8.5759 40.4821C7.02253 40.4821 5.68775 40.4821 4.2832 40.4821C4.2832 33.6966 4.2832 27.0041 4.2832 20.186C6.88301 20.0651 9.09214 19.093 10.7943 16.9397C12.4733 18.9303 14.4964 20.1116 17.0357 20.093C19.5239 20.079 21.547 19.0186 23.2074 16.9351C24.8491 18.8372 26.8257 20.0837 29.365 20.0976C31.923 20.1116 33.9694 18.9954 35.6622 16.9397C37.3458 19.0186 39.5178 20.0697 42.1966 20.1767C42.1966 26.9343 42.1966 33.6268 42.1966 40.4356C35.253 40.4356 28.3744 40.4356 21.3191 40.4356C21.3191 37.3149 21.3191 34.2593 21.3191 31.2038C21.3191 29.7992 21.361 28.39 21.3052 26.9901C21.1936 24.1485 19.3658 22.3858 16.5195 22.3161C15.5335 22.2928 14.5429 22.3021 13.5523 22.3161C10.4269 22.3579 8.59916 24.1531 8.58056 27.2692C8.5573 31.6316 8.5759 35.9987 8.5759 40.4821ZM30.6626 35.0081C31.8579 35.0081 33.0578 35.0686 34.2484 34.9942C36.3831 34.8593 37.7551 33.5338 37.8528 31.4316C37.9365 29.562 37.9458 27.6831 37.8481 25.8181C37.7412 23.7997 36.3552 22.4184 34.3228 22.344C31.8811 22.2556 29.4302 22.2416 26.9931 22.3486C24.9328 22.437 23.5934 23.9624 23.5515 26.0507C23.519 27.7156 23.5329 29.3806 23.5469 31.041C23.5701 33.5013 24.9096 34.8919 27.3838 34.9988C28.4767 35.05 29.5697 35.0081 30.6626 35.0081Z" fill="black"/>
<path d="M45.4754 10.6749C30.5742 10.6749 15.9241 10.6749 1.03223 10.6749C2.06471 8.82857 3.02277 7.07057 4.02735 5.34046C5.01332 3.64292 5.68304 1.35006 7.1713 0.461759C8.60375 -0.38934 10.9059 0.196663 12.8267 0.196663C21.2586 0.187361 29.6859 0.210615 38.1178 0.173409C39.1177 0.168758 39.7037 0.419902 40.206 1.35006C41.8664 4.43821 43.6523 7.46589 45.4754 10.6749Z" fill="black"/>
<path d="M11.3806 40.4772C11.3806 35.8217 11.3667 31.3011 11.3899 26.7852C11.3946 25.7387 12.0038 25.1481 13.0503 25.1202C14.3478 25.083 15.6733 24.9621 16.9383 25.1806C17.529 25.283 18.4499 26.0736 18.4592 26.5712C18.5754 31.1802 18.5289 35.7938 18.5289 40.4818C16.1058 40.4772 13.8362 40.4772 11.3806 40.4772Z" fill="black"/>
<path d="M12.3804 13.5679C15.5243 13.5679 18.5567 13.5679 21.6029 13.5679C21.1797 15.8003 19.5101 17.2281 17.2963 17.3118C14.8313 17.4048 13.1245 16.1398 12.3804 13.5679Z" fill="black"/>
<path d="M24.8584 13.5723C28.0023 13.5723 31.03 13.5723 34.0763 13.5723C33.5043 15.9814 31.7835 17.3394 29.4115 17.3208C27.1187 17.3022 25.4351 15.9488 24.8584 13.5723Z" fill="black"/>
<path d="M37.3599 13.5771C40.4108 13.5771 43.4524 13.5771 46.508 13.5771C45.9546 16.0142 44.1454 17.4001 41.6758 17.3257C39.4295 17.2606 37.6761 15.763 37.3599 13.5771Z" fill="black"/>
<path d="M9.13885 13.5815C8.77144 15.7907 7.03203 17.2557 4.79034 17.3161C2.29285 17.3813 0.488335 15.986 0 13.5815C3.04628 13.5815 6.08792 13.5815 9.13885 13.5815Z" fill="black"/>
<path d="M30.691 32.2733C29.705 32.2733 28.719 32.2407 27.733 32.2826C26.7703 32.3198 26.268 31.9756 26.2866 30.9525C26.3145 29.3944 26.3052 27.8364 26.2913 26.283C26.282 25.4319 26.668 25.0831 27.5284 25.0971C29.6538 25.1296 31.7839 25.125 33.9093 25.0971C34.7697 25.0878 35.1278 25.4505 35.1139 26.3063C35.086 27.8643 35.086 29.4223 35.1139 30.9757C35.1325 31.9105 34.7093 32.2965 33.8023 32.2779C32.7652 32.2547 31.7281 32.2733 30.691 32.2733Z" fill="black"/>
</svg>
