<svg width="37" height="47" viewBox="0 0 37 47" fill="none" xmlns="http://www.w3.org/2000/svg">
<path d="M18.584 17.8476C21.7977 16.9639 23.9464 17.9127 25.6067 20.4985C26.1416 21.3357 27.388 21.717 28.3089 22.303C28.4763 22.0937 28.6391 21.8845 28.8065 21.6752C27.867 20.4613 26.9276 19.2428 25.9602 17.9964C29.0902 17.0523 30.1506 17.3732 32.0342 19.6567C33.0294 20.8659 33.7922 22.5914 36.1269 21.638C35.0944 20.3916 34.1038 19.1963 32.9364 17.7871C34.2247 17.7871 35.3223 17.7871 36.6989 17.7871C36.6989 19.7869 36.6989 21.824 36.6989 23.8611C36.6989 27.9119 36.7082 31.9628 36.6943 36.0136C36.685 39.4645 34.9456 41.3295 31.5505 41.2319C29.3925 41.1714 27.8763 41.6737 26.2439 43.3712C21.8117 47.9848 14.3704 47.4965 10.2032 42.562C9.33819 41.5388 8.50569 41.1528 7.25462 41.2551C6.36632 41.3295 5.46406 41.3388 4.58041 41.2411C2.46894 41.0086 0.706277 39.3808 0.659769 37.1345C0.534197 30.8233 0.613261 24.5075 0.627214 18.1917C0.627214 18.0243 0.822548 17.8569 0.957422 17.6383C3.51537 18.2708 3.58048 22.6007 7.35229 21.7542C6.27795 20.4148 5.31523 19.2102 4.18044 17.7964C6.78024 17.4476 9.01263 17.0941 10.566 19.7265C11.3055 20.9776 12.1798 22.6053 14.389 21.6845C13.4309 20.4427 12.4914 19.2242 11.4032 17.8103C14.0913 17.3499 16.2772 17.2662 17.7934 19.8381C18.5282 21.0892 19.4491 22.4984 21.6582 21.6845C20.6397 20.4055 19.6537 19.1777 18.584 17.8476ZM26.016 35.4416C26.0486 31.2884 22.779 27.9538 18.677 27.9584C14.5983 27.9584 11.1753 31.3675 11.2032 35.3951C11.2311 39.339 14.5611 42.7108 18.5235 42.8131C22.5651 42.9201 25.9835 39.5529 26.016 35.4416Z" fill="black"/>
<path d="M29.9929 0.425537C28.7836 3.66715 28.7511 7.62964 23.9375 7.3692C24.4816 2.19749 25.756 0.662729 29.9929 0.425537Z" fill="black"/>
<path d="M23.2024 2.52783C22.1606 5.98339 22.0024 9.87147 17.1377 9.69008C17.6911 4.45327 18.6864 3.2115 23.2024 2.52783Z" fill="black"/>
<path d="M10.1753 11.9133C11.231 8.49959 11.524 4.68592 16.2911 4.73708C15.3982 10.3506 14.5843 11.3459 10.1753 11.9133Z" fill="black"/>
<path d="M3.39941 14.1595C4.64583 11.0714 4.52026 6.8624 9.67801 6.96472C8.57577 10.1738 8.59902 14.3037 3.39941 14.1595Z" fill="black"/>
<path d="M35.0621 3.90449C33.2762 4.49515 31.9554 4.93233 30.2578 5.49508C30.8345 3.70916 31.2996 2.25811 31.9693 0.179199C33.132 1.57909 34.0017 2.63017 35.0621 3.90449Z" fill="black"/>
<path d="M0.94824 15.564C-0.730704 12.8851 0.0692361 10.555 3.11087 9.11328C2.36209 11.341 1.69237 13.3362 0.94824 15.564Z" fill="black"/>
<path d="M23.5234 35.3533C20.8492 36.9067 18.468 38.288 15.8589 39.7995C15.8589 36.7485 15.8589 34.0045 15.8589 30.9536C18.3936 32.4047 20.7841 33.7767 23.5234 35.3533Z" fill="black"/>
</svg>
