<svg width="43" height="47" viewBox="0 0 43 47" fill="none" xmlns="http://www.w3.org/2000/svg">
<path d="M21.2264 46.969C16.929 46.7644 12.641 46.7272 8.45057 45.6621C5.54846 44.9273 2.93005 43.6948 1.4604 40.8764C0.283741 38.6208 -0.0650706 36.1326 0.200026 33.6677C1.07903 25.6032 5.75775 20.357 12.934 17.0643C13.52 16.7945 13.9664 16.9108 14.5524 17.1573C18.6033 18.8641 22.589 18.892 26.4632 16.5666C26.7655 16.3852 27.2631 16.3015 27.584 16.4178C34.6021 18.9664 39.7226 23.5149 41.8202 30.8214C42.955 34.7792 42.7503 38.8068 40.0715 42.281C38.5227 44.2855 36.2345 45.0808 33.8812 45.6854C32.9185 45.9319 31.9418 46.1737 30.9605 46.2574C27.7189 46.5318 24.4726 46.7365 21.2264 46.969ZM16.3197 34.8025C15.4035 37.193 15.2454 37.0395 17.9568 37.7929C17.9894 37.8022 18.0266 37.8162 18.0592 37.8115C19.1056 37.672 19.2312 38.2766 19.18 39.1138C19.1614 39.4068 19.2637 39.8719 19.4684 39.9928C20.4218 40.5602 21.4263 39.9463 21.4403 38.8487C21.4449 38.3185 21.324 37.8209 22.1007 37.5744C23.8587 37.0163 24.9517 35.7838 25.0307 33.8909C25.1144 31.9794 24.0168 30.7702 22.3798 29.9842C21.5798 29.5982 20.752 29.268 19.9567 28.868C19.3614 28.5704 18.7754 28.1937 18.98 27.3798C19.1893 26.5426 19.8962 26.3659 20.5985 26.4357C21.6635 26.538 22.7193 26.7752 23.8773 26.9705C24.0029 26.5705 24.1052 26.0682 24.3098 25.6078C24.6122 24.9241 24.375 24.58 23.7099 24.4126C23.0216 24.2405 22.3333 24.0591 21.6077 23.8684C21.5938 23.6405 21.5426 23.4033 21.5659 23.1754C21.6635 22.3057 21.4542 21.8779 20.4218 21.8872C19.4079 21.8918 19.1614 22.2871 19.2498 23.1754C19.3009 23.687 19.3056 24.0963 18.5893 24.3288C16.9616 24.859 15.9291 26.0171 15.8268 27.789C15.7291 29.5563 16.7337 30.6679 18.2312 31.3981C19.1521 31.8492 20.1102 32.2259 21.031 32.6817C21.7147 33.0212 22.1658 33.6723 21.7938 34.3606C21.538 34.835 20.8357 35.3606 20.3427 35.3513C19.0451 35.3234 17.7475 35.0164 16.3197 34.8025Z" fill="black"/>
<path d="M13.8687 4.74889C14.3199 4.71169 15.0128 4.72099 15.6732 4.57681C16.5383 4.39078 17.022 3.75827 17.3847 2.94903C17.6684 2.32117 18.0638 1.6375 18.6033 1.24683C19.7846 0.395729 21.3705 0.916623 21.9379 2.46999C22.682 4.52565 23.2773 4.73029 25.1702 3.51643C25.226 3.47922 25.2911 3.42341 25.3516 3.42341C26.1701 3.40946 27.1887 3.09786 27.7561 3.46992C28.556 3.99546 28.1514 5.02329 27.7654 5.81393C26.6352 8.11143 25.8353 10.474 25.8446 13.0925C25.8446 13.6226 25.2865 14.3668 24.7795 14.6505C22.8076 15.7527 20.6124 16.0411 18.4079 15.7202C13.2827 14.9714 14.2873 14.9342 12.5479 11.0321C12.0177 9.84153 11.5573 8.62767 11.0131 7.44171C10.1388 5.53488 10.7992 4.55356 12.9153 4.66518C13.1572 4.67448 13.3943 4.70704 13.8687 4.74889Z" fill="black"/>
</svg>
