<svg width="47" height="29" viewBox="0 0 47 29" fill="none" xmlns="http://www.w3.org/2000/svg">
<path d="M4.6416 22.5737C4.95786 15.4719 7.99949 10.0258 14.0037 6.4121C15.7989 5.33312 17.9197 4.77037 19.9335 4.09135C20.5474 3.88672 20.8497 3.76112 20.8822 3.04955C20.9613 1.46362 22.2031 0.361384 23.7425 0.384638C25.2261 0.407892 26.4121 1.50083 26.4865 3.05886C26.5237 3.77973 26.812 3.93786 27.4538 4.07273C36.0299 5.84469 42.4341 13.3186 42.6574 21.7598C42.662 22.0016 42.6574 22.2388 42.6574 22.5644C30.0257 22.5737 17.4174 22.5737 4.6416 22.5737ZM19.3149 10.6304C19.3614 8.98866 18.0918 8.23522 16.8407 8.84913C14.2083 10.1421 12.1201 12.0582 10.5574 14.5371C9.98539 15.444 10.1668 16.3928 10.9528 16.9043C11.7666 17.4345 12.6689 17.2531 13.2642 16.3369C14.5525 14.351 16.2454 12.8442 18.3243 11.714C18.8033 11.4489 19.1056 10.8629 19.3149 10.6304Z" fill="black"/>
<path d="M0.139767 27.3966C0.172322 26.5687 0.851341 25.913 1.67919 25.913C8.0508 25.9083 17.3199 25.913 23.6915 25.913C30.5235 25.913 37.3509 25.913 44.183 25.913C44.5969 25.913 45.0155 25.9083 45.4201 25.9641C46.1782 26.0664 46.5735 26.5641 46.6386 27.2896C46.7037 28.057 46.3875 28.6523 45.6061 28.8709C45.2155 28.9778 44.7876 28.9964 44.3783 28.9964C31.1095 29.0011 14.9433 29.0011 1.67454 28.9964C0.804833 28.9918 0.107211 28.2663 0.139767 27.3966Z" fill="black"/>
</svg>
