<svg width="47" height="19" viewBox="0 0 47 19" fill="none" xmlns="http://www.w3.org/2000/svg">
<path d="M42.8205 16.0926C42.6112 12.2557 40.7928 10.1535 37.8627 10.1209C34.8583 10.0884 33.0445 12.1161 32.7375 15.967C26.3566 15.967 19.9618 15.967 13.446 15.967C13.4181 14.1393 13.1204 12.2882 11.474 11.2511C10.4881 10.6279 9.19978 10.1907 8.04638 10.1907C5.21868 10.1907 3.66996 12.2231 3.34441 15.9298C1.05155 16.5158 0.163248 15.8508 0.144645 13.5393C0.139994 13.2323 0.144645 12.9207 0.144645 12.6138C0.186502 7.60485 0.479504 7.26069 5.24194 5.89335C6.36278 5.57244 7.58595 5.20968 8.4603 4.49346C13.4227 0.437946 19.0642 0.19145 24.9846 1.30765C28.7937 2.02387 32.2213 3.57724 35.2722 5.98172C35.8024 6.40029 36.5373 6.61888 37.2116 6.78166C39.258 7.27929 41.3648 7.56299 43.36 8.20016C46.0389 9.05591 47.4806 13.0137 46.1412 15.4926C45.9877 15.7763 45.5412 16.0228 45.2017 16.06C44.4483 16.1484 43.6809 16.0926 42.8205 16.0926ZM10.0788 6.31193C13.832 6.31193 17.1294 6.31193 20.6315 6.31193C20.5152 5.24224 20.4548 4.23301 20.2641 3.24703C20.2083 2.95403 19.7618 2.51686 19.506 2.52151C16.0969 2.63313 12.9297 3.40982 10.0788 6.31193ZM32.8399 6.54447C29.7145 3.84699 26.152 2.84707 22.0965 2.475C22.25 3.70282 22.2872 4.67949 22.5244 5.60965C22.6174 5.97706 23.129 6.4933 23.4592 6.5026C26.4822 6.57237 29.5099 6.54447 32.8399 6.54447Z" fill="black"/>
<path d="M41.6022 15.074C41.6068 17.232 39.9651 18.897 37.8304 18.9063C35.6352 18.9202 33.8911 17.1808 33.9283 15.0135C33.9655 12.9114 35.6863 11.2417 37.8071 11.251C39.9093 11.2603 41.5975 12.9625 41.6022 15.074Z" fill="black"/>
<path d="M8.35791 11.2604C10.4694 11.2325 12.1855 12.8974 12.2274 15.0136C12.2692 17.1343 10.6229 18.8598 8.50673 18.911C6.33015 18.9668 4.53029 17.232 4.53959 15.0833C4.54424 12.9905 6.24644 11.2883 8.35791 11.2604Z" fill="black"/>
</svg>
